<svg class="svg-icon" style="width: 1em; height: 1em;vertical-align: middle;fill: currentColor;overflow: hidden;" viewBox="0 0 1024 1024" version="1.1" xmlns="http://www.w3.org/2000/svg"><path d="M871.253333 175.786667a42.666667 42.666667 0 0 0-23.04-23.04 42.666667 42.666667 0 0 0-16.213333-3.413334h-170.666667a42.666667 42.666667 0 0 0 0 85.333334h67.84l-102.4 102.4a298.666667 298.666667 0 1 0 60.16 60.16l102.4-102.4V362.666667a42.666667 42.666667 0 0 0 85.333334 0v-170.666667a42.666667 42.666667 0 0 0-3.413334-16.213333zM597.333333 725.333333a213.333333 213.333333 0 1 1 0-298.666666 213.333333 213.333333 0 0 1 0 298.666666z"  /></svg>