<?xml version="1.0" encoding="UTF-8"?>
<!-- Generator: visioncortex VTracer 0.6.3 -->
<svg version="1.1" xmlns="http://www.w3.org/2000/svg" width="1280" height="1280">
<path d="M0 0 C1.11 0.08 2.22 0.16 3.37 0.24 C9.18 0.7 14.77 1.46 20.47 2.69 C23.18 3.24 25.86 3.47 28.62 3.62 C35.19 4.11 41.5 5.06 47.75 7.19 C50.7 8.15 53.53 8.51 56.61 8.85 C60.56 9.39 64.3 10.57 67.98 12.11 C70.72 13.16 73.39 13.84 76.25 14.5 C82.24 15.97 87.88 17.91 93.62 20.12 C95.05 20.66 96.47 21.19 97.89 21.73 C105.8 24.72 113.45 27.87 120.96 31.79 C123.52 33.07 126.07 34.12 128.75 35.12 C133.15 36.82 136.98 39.05 140.97 41.55 C144.81 43.83 148.82 45.72 152.86 47.63 C155.76 49.2 158.1 51.04 160.62 53.12 C162.25 54.07 163.87 55.01 165.51 55.92 C168.23 57.47 170.9 59.1 173.56 60.75 C174.52 61.34 175.48 61.93 176.46 62.54 C177.18 63.06 177.89 63.59 178.62 64.12 C178.62 64.78 178.62 65.44 178.62 66.12 C179.3 66.34 179.98 66.56 180.68 66.79 C184.5 68.52 187.45 70.93 190.69 73.56 C191.91 74.54 193.13 75.52 194.35 76.5 C195.2 77.18 195.2 77.18 196.06 77.89 C197.36 78.92 198.71 79.89 200.06 80.85 C200.58 81.27 201.09 81.69 201.62 82.12 C201.62 82.78 201.62 83.44 201.62 84.12 C202.17 84.35 202.71 84.58 203.27 84.81 C206.36 86.54 208.67 88.77 211.25 91.19 C214.67 94.54 214.67 94.54 218.62 97.12 C218.62 97.78 218.62 98.44 218.62 99.12 C219.49 99.5 219.49 99.5 220.38 99.88 C222.95 101.31 224.69 102.91 226.62 105.12 C226.62 105.78 226.62 106.44 226.62 107.12 C227.28 107.12 227.95 107.12 228.62 107.12 C230.21 108.73 230.21 108.73 232 110.88 C233.96 113.19 235.88 115.38 238.06 117.5 C239.62 119.12 239.62 119.12 239.62 121.12 C240.28 121.12 240.95 121.12 241.62 121.12 C243.5 123.32 245.26 125.52 247 127.81 C247.97 129.07 248.93 130.32 249.9 131.57 C250.36 132.18 250.82 132.78 251.3 133.41 C252.49 134.95 253.73 136.46 254.98 137.96 C256.62 140.12 256.62 140.12 256.62 142.12 C257.28 142.12 257.95 142.12 258.62 142.12 C261.62 146.51 261.62 146.51 261.62 149.12 C262.28 149.12 262.95 149.12 263.62 149.12 C265.32 151.39 265.32 151.39 267.19 154.38 C267.81 155.35 268.43 156.32 269.07 157.33 C270.38 159.69 271.17 161.49 271.62 164.12 C272.28 164.12 272.95 164.12 273.62 164.12 C278.48 170.9 282.36 178.34 285.99 185.82 C287.97 189.83 290.08 193.75 292.19 197.69 C297.14 206.99 301.44 216.18 304.66 226.23 C305.54 228.86 306.51 231.39 307.56 233.94 C312.45 245.97 315.9 258.37 319.07 270.94 C319.44 272.4 319.82 273.86 320.2 275.31 C321.09 278.75 321.85 282.08 322.12 285.62 C322.47 289.16 323.19 292.44 324.09 295.87 C326.27 305.01 326.92 314.23 327.28 323.59 C327.31 324.36 327.35 325.14 327.38 325.94 C327.4 326.62 327.43 327.31 327.45 328.02 C327.58 330.16 327.58 330.16 328.13 332.33 C328.82 336.22 328.77 340.03 328.76 343.97 C328.76 344.82 328.76 345.66 328.76 346.53 C328.76 348.32 328.76 350.1 328.76 351.89 C328.75 354.62 328.76 357.34 328.76 360.07 C328.76 361.8 328.76 363.54 328.76 365.28 C328.76 366.09 328.76 366.9 328.76 367.74 C328.75 371.69 328.51 375.26 327.62 379.12 C327.51 380.52 327.43 381.92 327.38 383.31 C327.35 384.09 327.32 384.86 327.28 385.66 C327.25 386.47 327.22 387.29 327.19 388.12 C326.76 397.35 325.91 406.41 323.56 415.38 C322.86 418.17 322.47 420.43 322.25 423.25 C321.74 428.47 320.22 433.31 318.73 438.32 C317.6 442.21 316.63 446.12 315.69 450.06 C312.78 461.96 308.66 473.39 304.02 484.71 C302.89 487.48 301.81 490.26 300.75 493.06 C298.13 499.61 294.83 505.85 291.63 512.13 C290.71 513.97 289.8 515.82 288.9 517.67 C285.61 524.43 282.08 531 278.31 537.5 C277.88 538.26 277.45 539.01 277 539.79 C275.93 541.61 274.79 543.37 273.62 545.12 C272.97 545.12 272.3 545.12 271.62 545.12 C271.53 545.67 271.44 546.21 271.34 546.77 C270.41 549.82 268.9 552.18 267.19 554.88 C266.26 556.35 266.26 556.35 265.32 557.86 C264.76 558.61 264.2 559.35 263.62 560.12 C262.97 560.12 262.3 560.12 261.62 560.12 C261.62 561.12 261.62 562.11 261.62 563.12 C260.97 563.12 260.3 563.12 259.62 563.12 C259.38 563.67 259.13 564.22 258.87 564.78 C257.37 567.6 255.58 570.06 253.69 572.62 C253 573.56 252.31 574.5 251.6 575.47 C250.95 576.35 250.3 577.22 249.62 578.12 C249.09 578.9 248.55 579.67 248 580.47 C247.54 581.02 247.09 581.56 246.62 582.12 C245.97 582.12 245.3 582.12 244.62 582.12 C244.32 582.74 244.01 583.36 243.69 584 C243 585.38 242.31 586.75 241.62 588.12 C240.97 588.12 240.3 588.12 239.62 588.12 C239.37 588.7 239.11 589.27 238.84 589.86 C237.51 592.34 235.97 594.26 234.12 596.38 C233.52 597.08 232.91 597.79 232.28 598.52 C230.62 600.12 230.62 600.12 228.62 600.12 C228.62 600.78 228.62 601.45 228.62 602.12 C227.97 602.12 227.3 602.12 226.62 602.12 C226.29 603.12 225.97 604.11 225.62 605.12 C224.97 605.12 224.3 605.12 223.62 605.12 C223.62 605.78 223.62 606.45 223.62 607.12 C222.97 607.12 222.3 607.12 221.62 607.12 C221.29 608.12 220.97 609.11 220.62 610.12 C219.97 610.12 219.3 610.12 218.62 610.12 C218.62 610.78 218.62 611.45 218.62 612.12 C217.16 613.63 217.16 613.63 215.25 615.25 C214.31 616.06 214.31 616.06 213.35 616.88 C211.63 618.12 211.63 618.12 209.62 618.12 C209.62 618.78 209.62 619.45 209.62 620.12 C204.15 625.12 204.15 625.12 201.62 625.12 C201.62 625.78 201.62 626.45 201.62 627.12 C200.13 628.5 200.13 628.5 198.05 630.06 C197.3 630.63 196.55 631.19 195.78 631.78 C194.98 632.37 194.19 632.95 193.38 633.56 C192.6 634.15 191.82 634.73 191.02 635.34 C188.89 636.94 186.76 638.53 184.62 640.12 C183.92 640.68 183.22 641.24 182.49 641.82 C180.62 643.12 180.62 643.12 178.62 643.12 C178.62 643.78 178.62 644.45 178.62 645.12 C176.61 646.61 176.61 646.61 173.81 648.31 C172.81 648.93 171.8 649.56 170.77 650.2 C169.73 650.83 168.69 651.47 167.62 652.12 C165.77 653.31 163.91 654.5 162.06 655.69 C154 660.8 145.95 665.55 137.37 669.75 C135.18 670.85 133.09 671.99 131 673.25 C127.53 675.18 124.06 676.61 120.35 678 C118.09 678.93 115.99 679.95 113.83 681.06 C109.75 683.13 105.59 684.67 101.25 686.12 C96.59 687.72 91.98 689.34 87.44 691.25 C79.68 694.43 71.5 696.55 63.31 698.31 C59.84 698.73 59.84 698.73 58.62 700.12 C57.24 700.46 55.84 700.74 54.44 701 C50.18 701.81 45.97 702.73 41.75 703.69 C36.3 704.87 31.02 705.52 25.46 705.88 C22.77 706.11 20.26 706.56 17.62 707.12 C9.05 708.55 0.31 708.69 -8.38 709.12 C-8.38 767.87 -8.38 826.61 -8.38 887.12 C5.92 887.09 20.22 887.06 34.95 887.02 C43.99 887 53.03 886.99 62.07 886.98 C76.43 886.96 90.79 886.94 105.15 886.9 C115.61 886.87 126.07 886.85 136.52 886.84 C142.06 886.84 147.6 886.83 153.14 886.81 C158.35 886.79 163.56 886.78 168.77 886.79 C170.69 886.78 172.6 886.78 174.51 886.77 C177.12 886.75 179.74 886.76 182.35 886.76 C183.11 886.76 183.86 886.75 184.64 886.74 C190.83 886.79 194.69 888.5 199.38 892.44 C202.63 896.32 203.45 899.52 204 904.5 C203.42 910.07 201.19 914.14 197.75 918.5 C192.83 922.26 187.4 922.42 181.42 922.4 C180.62 922.41 179.81 922.42 178.97 922.42 C176.27 922.44 173.56 922.44 170.86 922.44 C168.92 922.45 166.98 922.46 165.03 922.47 C159.77 922.5 154.5 922.52 149.24 922.53 C143.73 922.55 138.23 922.57 132.72 922.6 C122.3 922.64 111.88 922.68 101.45 922.71 C89.59 922.75 77.72 922.8 65.85 922.85 C41.44 922.96 17.03 923.04 -7.38 923.12 C-7.38 924.63 -7.38 924.63 -7.38 926.16 C-7.44 950.57 -7.52 974.97 -7.61 999.38 C-7.66 1011.18 -7.7 1022.98 -7.72 1034.78 C-7.74 1045.07 -7.78 1055.35 -7.82 1065.64 C-7.85 1071.09 -7.87 1076.53 -7.87 1081.98 C-7.88 1087.11 -7.9 1092.24 -7.93 1097.37 C-7.94 1099.25 -7.94 1101.13 -7.94 1103.01 C-7.94 1105.58 -7.96 1108.15 -7.98 1110.72 C-7.97 1111.83 -7.97 1111.83 -7.96 1112.96 C-8.03 1118.25 -9.31 1122.25 -11.38 1127.12 C-12.04 1127.12 -12.69 1127.12 -13.38 1127.12 C-13.7 1128.12 -14.04 1129.11 -14.38 1130.12 C-15.04 1130.12 -15.69 1130.12 -16.38 1130.12 C-16.38 1130.79 -16.38 1131.44 -16.38 1132.12 C-23.2 1135.12 -27.33 1135.66 -34.5 1132.94 C-39.99 1129.48 -42.74 1125.31 -44.38 1119.12 C-44.56 1116.37 -44.66 1113.72 -44.65 1110.96 C-44.66 1110.16 -44.67 1109.35 -44.67 1108.52 C-44.69 1105.83 -44.69 1103.14 -44.69 1100.45 C-44.7 1098.52 -44.71 1096.59 -44.72 1094.66 C-44.75 1089.42 -44.77 1084.18 -44.78 1078.94 C-44.8 1073.46 -44.82 1067.98 -44.85 1062.51 C-44.89 1052.14 -44.93 1041.77 -44.96 1031.4 C-45 1019.59 -45.05 1007.78 -45.1 995.98 C-45.21 971.69 -45.29 947.41 -45.38 923.12 C-46.38 923.12 -47.39 923.12 -48.43 923.12 C-72.98 923.06 -97.52 922.98 -122.07 922.89 C-133.94 922.84 -145.81 922.8 -157.68 922.78 C-168.03 922.76 -178.37 922.72 -188.72 922.68 C-194.2 922.65 -199.67 922.63 -205.15 922.63 C-210.31 922.62 -215.47 922.6 -220.62 922.57 C-222.51 922.56 -224.41 922.56 -226.3 922.56 C-228.88 922.56 -231.47 922.54 -234.05 922.52 C-235.17 922.53 -235.17 922.53 -236.32 922.54 C-242.74 922.45 -247.21 920.91 -252.19 916.81 C-256.15 911.94 -256.92 907.31 -256.38 901.12 C-254.46 895.28 -251.8 890.91 -246.22 888 C-242.53 886.86 -239.04 886.86 -235.22 886.88 C-234.4 886.88 -233.59 886.88 -232.74 886.88 C-230.01 886.88 -227.27 886.89 -224.54 886.9 C-222.58 886.9 -220.62 886.9 -218.66 886.9 C-213.33 886.9 -208.01 886.91 -202.68 886.92 C-197.12 886.93 -191.56 886.94 -185.99 886.94 C-175.46 886.94 -164.92 886.96 -154.38 886.98 C-140.15 887.01 -125.91 887.02 -111.67 887.03 C-89.24 887.05 -66.81 887.09 -44.38 887.12 C-44.38 828.38 -44.38 769.64 -44.38 709.12 C-50.98 708.79 -57.58 708.47 -64.38 708.12 C-70.44 707.12 -70.44 707.12 -72.96 706.59 C-75.52 706.1 -78.02 705.87 -80.62 705.69 C-87.66 705.12 -94.48 703.58 -101.38 702.12 C-103.23 701.77 -105.08 701.41 -106.94 701.06 C-110.54 700.34 -113.89 699.31 -117.38 698.12 C-119.29 697.66 -121.21 697.2 -123.12 696.75 C-127.94 695.57 -132.36 694.03 -136.92 692.1 C-140.29 690.76 -143.74 689.79 -147.25 688.84 C-149.37 688.12 -149.37 688.12 -152.38 686.12 C-153.92 685.62 -155.49 685.17 -157.06 684.75 C-161.07 683.59 -164.59 682.16 -168.27 680.21 C-170.64 678.99 -173.06 677.9 -175.5 676.81 C-186.6 671.77 -197.1 666.25 -207.42 659.77 C-208.15 659.31 -208.88 658.85 -209.64 658.38 C-210.29 657.97 -210.94 657.56 -211.6 657.14 C-213.51 655.97 -213.51 655.97 -216.38 655.12 C-216.38 654.47 -216.38 653.8 -216.38 653.12 C-216.92 653.03 -217.46 652.94 -218.02 652.84 C-221.07 651.91 -223.43 650.4 -226.12 648.69 C-227.6 647.76 -227.6 647.76 -229.11 646.82 C-229.86 646.26 -230.6 645.7 -231.38 645.12 C-231.38 644.47 -231.38 643.8 -231.38 643.12 C-232.2 642.75 -232.2 642.75 -233.05 642.36 C-237.82 639.83 -242.04 636.34 -246.38 633.12 C-247.2 632.53 -248.02 631.94 -248.87 631.34 C-249.59 630.81 -250.32 630.29 -251.06 629.75 C-251.71 629.29 -252.35 628.83 -253.01 628.35 C-253.69 627.74 -253.69 627.74 -254.38 627.12 C-254.38 626.47 -254.38 625.8 -254.38 625.12 C-254.95 624.86 -255.53 624.59 -256.12 624.31 C-258.43 623.1 -260.4 621.82 -262.38 620.12 C-262.38 619.47 -262.38 618.8 -262.38 618.12 C-262.93 617.88 -263.49 617.63 -264.06 617.38 C-266.8 615.9 -269.05 614.19 -271.38 612.12 C-271.38 611.47 -271.38 610.8 -271.38 610.12 C-272.37 609.79 -273.36 609.47 -274.38 609.12 C-274.38 608.47 -274.38 607.8 -274.38 607.12 C-275.03 607.12 -275.69 607.12 -276.38 607.12 C-276.38 606.47 -276.38 605.8 -276.38 605.12 C-277.37 604.79 -278.36 604.47 -279.38 604.12 C-279.38 603.47 -279.38 602.8 -279.38 602.12 C-280.03 602.12 -280.69 602.12 -281.38 602.12 C-281.38 601.47 -281.38 600.8 -281.38 600.12 C-282.37 599.79 -283.36 599.47 -284.38 599.12 C-286.16 597.38 -286.16 597.38 -288 595.25 C-288.61 594.55 -289.22 593.85 -289.85 593.13 C-291.38 591.12 -291.38 591.12 -292.38 588.12 C-293.03 588.12 -293.69 588.12 -294.38 588.12 C-297.38 584.66 -297.38 584.66 -297.38 582.12 C-298.03 582.12 -298.69 582.12 -299.38 582.12 C-301.1 580.08 -302.72 578.02 -304.31 575.88 C-304.76 575.29 -305.2 574.7 -305.65 574.1 C-306.51 572.96 -307.37 571.81 -308.22 570.67 C-309.19 569.37 -310.19 568.1 -311.19 566.83 C-312.38 565.12 -312.38 565.12 -312.38 563.12 C-313.03 563.12 -313.69 563.12 -314.38 563.12 C-314.38 562.13 -314.38 561.14 -314.38 560.12 C-315.03 560.12 -315.69 560.12 -316.38 560.12 C-317.71 558.32 -317.71 558.32 -319.31 555.69 C-319.93 554.69 -320.54 553.69 -321.18 552.66 C-321.52 552.1 -321.87 551.53 -322.23 550.96 C-323.48 548.96 -324.77 547 -326.07 545.03 C-330.75 537.95 -335.2 530.97 -338.85 523.29 C-340.77 519.32 -342.85 515.45 -344.94 511.56 C-349.84 502.34 -354.21 493.25 -357.29 483.24 C-358.17 480.7 -359.16 478.38 -360.3 475.95 C-362.62 470.82 -364.1 465.55 -365.56 460.12 C-366.07 458.25 -366.59 456.37 -367.11 454.5 C-367.33 453.68 -367.55 452.87 -367.77 452.02 C-368.21 450.13 -368.21 450.13 -369.38 449.12 C-369.85 447.04 -370.33 444.95 -370.77 442.86 C-371.42 439.92 -372.18 437.03 -372.94 434.12 C-374.04 429.8 -374.74 425.63 -375.13 421.19 C-375.45 418.52 -376.15 415.98 -376.84 413.38 C-378.96 404.49 -379.65 395.5 -380.03 386.39 C-380.06 385.67 -380.1 384.94 -380.13 384.19 C-380.15 383.55 -380.18 382.91 -380.2 382.25 C-380.35 380.02 -380.35 380.02 -380.88 377.43 C-381.49 373.33 -381.52 369.35 -381.51 365.22 C-381.51 364.38 -381.51 363.53 -381.51 362.66 C-381.51 360.89 -381.51 359.11 -381.51 357.34 C-381.5 354.63 -381.51 351.93 -381.51 349.22 C-381.51 347.49 -381.51 345.76 -381.51 344.03 C-381.51 343.23 -381.51 342.42 -381.51 341.6 C-381.5 337.32 -381.17 333.34 -380.38 329.12 C-380.23 326.39 -380.1 323.67 -380 320.94 C-379.69 314.09 -378.96 307.39 -377.88 300.62 C-377.74 299.81 -377.61 298.99 -377.48 298.14 C-376.52 292.41 -376.52 292.41 -375.38 290.12 C-375.27 288.89 -375.17 287.65 -375.06 286.38 C-374.52 280.89 -372.93 275.81 -371.31 270.55 C-370.36 267.08 -369.86 263.69 -369.38 260.12 C-368.8 258 -368.8 258 -368.12 256.12 C-367.15 253.34 -366.19 250.55 -365.28 247.74 C-362.56 239.37 -359.52 231.21 -356.17 223.07 C-355.59 221.66 -355.03 220.24 -354.47 218.82 C-352.05 212.64 -349.36 206.62 -346.5 200.62 C-346.06 199.7 -345.62 198.78 -345.17 197.83 C-342.59 192.5 -339.92 187.33 -336.75 182.32 C-334.59 178.86 -332.7 175.26 -330.77 171.67 C-327.84 166.32 -327.84 166.32 -326.38 164.12 C-325.72 164.12 -325.06 164.12 -324.38 164.12 C-324.23 163.31 -324.23 163.31 -324.09 162.48 C-323.16 159.43 -321.65 157.07 -319.94 154.38 C-319.32 153.39 -318.7 152.41 -318.07 151.39 C-317.51 150.64 -316.95 149.9 -316.38 149.12 C-315.72 149.12 -315.06 149.12 -314.38 149.12 C-314.12 148.4 -313.86 147.67 -313.6 146.92 C-312.3 143.96 -310.81 141.91 -308.75 139.44 C-308.04 138.58 -307.34 137.72 -306.61 136.83 C-305.87 135.94 -305.13 135.04 -304.38 134.12 C-302.91 132.32 -301.45 130.5 -300 128.69 C-299.35 127.88 -298.71 127.08 -298.04 126.25 C-296.75 124.6 -295.54 122.87 -294.38 121.12 C-293.72 121.12 -293.06 121.12 -292.38 121.12 C-292.13 120.55 -291.88 119.98 -291.63 119.38 C-290.18 116.77 -288.47 115.06 -286.31 113 C-283.46 110.35 -283.46 110.35 -281.38 107.12 C-280.72 107.12 -280.06 107.12 -279.38 107.12 C-278.88 105.64 -278.88 105.64 -278.38 104.12 C-277.72 104.12 -277.06 104.12 -276.38 104.12 C-276.38 103.47 -276.38 102.81 -276.38 102.12 C-275.72 102.12 -275.06 102.12 -274.38 102.12 C-273.88 100.64 -273.88 100.64 -273.38 99.12 C-272.72 99.12 -272.06 99.12 -271.38 99.12 C-271.38 98.47 -271.38 97.81 -271.38 97.12 C-269.91 95.62 -269.91 95.62 -268 94 C-267.37 93.46 -266.75 92.92 -266.1 92.37 C-264.38 91.12 -264.38 91.12 -262.38 91.12 C-262.38 90.47 -262.38 89.81 -262.38 89.12 C-256.9 84.12 -256.9 84.12 -254.38 84.12 C-254.38 83.47 -254.38 82.81 -254.38 82.12 C-252.7 80.62 -252.7 80.62 -250.5 79 C-249.78 78.46 -249.06 77.92 -248.32 77.37 C-246.38 76.12 -246.38 76.12 -244.38 76.12 C-244.38 75.47 -244.38 74.81 -244.38 74.12 C-235.55 66.12 -235.55 66.12 -231.38 66.12 C-231.38 65.47 -231.38 64.81 -231.38 64.12 C-229.11 62.43 -229.11 62.43 -226.12 60.56 C-225.15 59.94 -224.18 59.32 -223.17 58.68 C-220.81 57.37 -219.01 56.58 -216.38 56.12 C-216.38 55.47 -216.38 54.81 -216.38 54.12 C-215.43 53.59 -214.48 53.05 -213.5 52.5 C-211.39 51.3 -209.31 50.08 -207.25 48.8 C-200.13 44.4 -192.72 40.71 -185.22 37.03 C-182.78 35.83 -180.36 34.6 -177.94 33.38 C-165.8 27.33 -153.17 22.2 -140.25 18.08 C-137.99 17.33 -135.8 16.51 -133.59 15.64 C-129.28 14.01 -124.93 12.98 -120.44 12 C-115.51 11.3 -115.51 11.3 -111.38 9.12 C-109.95 8.77 -108.51 8.47 -107.06 8.19 C-106.17 8.01 -105.28 7.84 -104.36 7.66 C-100.19 6.91 -96.02 6.24 -91.84 5.59 C-89.38 5.24 -89.38 5.24 -87.38 4.12 C-84.56 3.84 -81.73 3.68 -78.91 3.5 C-76.1 3.2 -73.51 2.75 -70.76 2.16 C-64.79 0.93 -58.82 0.43 -52.75 0 C-50.98 -0.13 -50.98 -0.13 -49.17 -0.25 C-32.71 -1.33 -16.45 -1.16 0 0 Z M-80.38 39.12 C-81.77 39.26 -83.17 39.36 -84.56 39.44 C-92.96 40.19 -101 42.85 -109.06 45.2 C-111.61 45.91 -114.09 46.51 -116.69 47 C-120.97 47.92 -124.82 49.44 -128.85 51.12 C-131.29 52.09 -133.72 52.85 -136.25 53.56 C-151.56 58.02 -166.21 65.89 -180.38 73.12 C-180.38 73.78 -180.38 74.44 -180.38 75.12 C-180.93 75.24 -181.48 75.35 -182.05 75.46 C-190.63 77.91 -198.24 83.97 -205.38 89.12 C-208.35 91.24 -211.33 93.34 -214.31 95.44 C-215.43 96.23 -215.43 96.23 -216.57 97.04 C-217.63 97.79 -217.63 97.79 -218.71 98.55 C-219.35 99 -219.98 99.45 -220.63 99.91 C-222.2 101 -223.79 102.07 -225.38 103.12 C-225.38 103.78 -225.38 104.44 -225.38 105.12 C-227.37 106.12 -229.38 107.13 -231.38 108.12 C-231.38 108.78 -231.38 109.44 -231.38 110.12 C-231.93 110.37 -232.49 110.62 -233.06 110.88 C-235.79 112.35 -238.03 114.11 -240.44 116.06 C-241.72 117.1 -241.72 117.1 -243.04 118.15 C-245.84 120.5 -245.84 120.5 -248.38 123.12 C-248.38 123.78 -248.38 124.44 -248.38 125.12 C-249.03 125.12 -249.69 125.12 -250.38 125.12 C-252.04 126.46 -252.04 126.46 -253.38 128.12 C-253.38 128.78 -253.38 129.44 -253.38 130.12 C-254.03 130.12 -254.69 130.12 -255.38 130.12 C-257.04 131.46 -257.04 131.46 -258.38 133.12 C-258.38 133.78 -258.38 134.44 -258.38 135.12 C-259.03 135.12 -259.69 135.12 -260.38 135.12 C-261.94 136.82 -263.43 138.58 -264.88 140.38 C-265.67 141.35 -266.46 142.32 -267.28 143.33 C-268.96 145.57 -270.26 147.57 -271.38 150.12 C-272.03 150.12 -272.69 150.12 -273.38 150.12 C-275.17 152.21 -276.85 154.3 -278.5 156.5 C-278.97 157.1 -279.44 157.71 -279.92 158.33 C-282.51 161.38 -282.51 161.38 -283.38 165.12 C-284.03 165.12 -284.69 165.12 -285.38 165.12 C-285.89 166.07 -286.41 167.02 -286.94 168 C-288.7 171.08 -290.63 173.98 -292.69 176.88 C-303.16 190 -303.16 190 -308.38 205.12 C-309.03 205.12 -309.69 205.12 -310.38 205.12 C-312.71 210.08 -315.05 215.03 -317.38 219.99 C-318.2 221.74 -319.02 223.5 -319.84 225.25 C-326.54 239.69 -331.15 254.63 -335.45 269.93 C-336.04 271.98 -336.69 274.01 -337.4 276.01 C-338.59 279.81 -339.24 283.58 -339.88 287.5 C-340.58 291.8 -341.32 296.03 -342.43 300.24 C-343.31 303.86 -343.73 307.17 -343.94 310.88 C-344.28 316.75 -344.28 316.75 -344.87 319.02 C-349.84 339.64 -349.74 371.6 -344.38 392.12 C-344.22 394.06 -344.1 396 -344 397.94 C-341.37 434.21 -326.77 471.99 -310.38 504.12 C-309.72 504.12 -309.06 504.12 -308.38 504.12 C-308.2 505.23 -308.2 505.23 -308.03 506.35 C-307.35 509.22 -306.43 511.07 -304.88 513.56 C-304.33 514.44 -303.78 515.31 -303.22 516.21 C-302.61 517.18 -302 518.14 -301.38 519.12 C-300.41 520.67 -300.41 520.67 -299.43 522.25 C-293.65 531.45 -287.38 540.26 -280.94 549 C-279.85 550.48 -278.78 551.96 -277.72 553.44 C-277.18 554.18 -276.65 554.91 -276.11 555.66 C-275.39 556.66 -275.39 556.66 -274.66 557.68 C-274.02 558.39 -274.02 558.39 -273.38 559.12 C-272.72 559.12 -272.06 559.12 -271.38 559.12 C-271.02 559.94 -271.02 559.94 -270.66 560.77 C-269.03 563.76 -267.02 566.24 -264.88 568.88 C-263.68 570.35 -263.68 570.35 -262.47 571.86 C-261.78 572.61 -261.09 573.35 -260.38 574.12 C-259.72 574.12 -259.06 574.12 -258.38 574.12 C-258.38 574.78 -258.38 575.45 -258.38 576.12 C-257.04 577.79 -257.04 577.79 -255.38 579.12 C-254.72 579.12 -254.06 579.12 -253.38 579.12 C-253.38 579.78 -253.38 580.45 -253.38 581.12 C-252.04 582.79 -252.04 582.79 -250.38 584.12 C-249.72 584.12 -249.06 584.12 -248.38 584.12 C-248.38 584.78 -248.38 585.45 -248.38 586.12 C-246.83 587.73 -246.83 587.73 -244.81 589.38 C-243.72 590.3 -243.72 590.3 -242.61 591.24 C-241.87 591.86 -241.14 592.48 -240.38 593.12 C-239.38 594.01 -239.38 594.01 -238.36 594.92 C-237.74 595.46 -237.13 596 -236.5 596.56 C-235.95 597.06 -235.39 597.55 -234.82 598.06 C-233.41 599.32 -233.41 599.32 -231.38 599.12 C-231.38 599.78 -231.38 600.45 -231.38 601.12 C-228.74 603.52 -228.74 603.52 -225.38 604.12 C-225.38 604.78 -225.38 605.45 -225.38 606.12 C-223.89 607.44 -223.89 607.44 -221.94 608.73 C-221.21 609.24 -220.48 609.75 -219.72 610.27 C-218.95 610.8 -218.17 611.33 -217.38 611.88 C-215.87 612.91 -214.37 613.95 -212.88 614.98 C-212.13 615.5 -211.38 616.01 -210.62 616.54 C-207.73 618.58 -204.92 620.7 -202.12 622.85 C-199.99 624.4 -197.75 625.69 -195.44 626.95 C-193.84 627.86 -192.27 628.84 -190.71 629.83 C-182.01 635.41 -172.97 639.79 -163.58 644.09 C-161.42 645.1 -159.28 646.17 -157.15 647.26 C-154.08 648.81 -151.01 650.08 -147.75 651.19 C-144.85 652.18 -142.2 653.21 -139.47 654.62 C-136.17 656.23 -132.98 657.22 -129.44 658.19 C-128.27 658.51 -127.11 658.83 -125.91 659.16 C-124.74 659.48 -123.58 659.8 -122.38 660.12 C-115.63 661.99 -115.63 661.99 -113.38 663.19 C-110.48 664.54 -107.52 664.71 -104.38 665.12 C-104.04 665.46 -103.72 665.78 -103.38 666.12 C-101.57 666.5 -99.76 666.82 -97.94 667.12 C-92.59 668.02 -92.59 668.02 -90.38 669.12 C-88.84 669.39 -87.3 669.61 -85.75 669.81 C-84.82 669.93 -83.88 670.05 -82.92 670.18 C-81.93 670.31 -80.95 670.43 -79.94 670.56 C-78.02 670.81 -76.11 671.06 -74.19 671.31 C-72.91 671.47 -72.91 671.47 -71.61 671.64 C-69.75 671.92 -67.89 672.23 -66.05 672.61 C-58.48 674.16 -51.19 674.43 -43.48 674.43 C-42.17 674.43 -40.85 674.43 -39.5 674.44 C-36.74 674.45 -33.97 674.45 -31.21 674.44 C-28.42 674.44 -25.63 674.44 -22.84 674.46 C-7.16 674.56 8.17 674.27 23.65 671.48 C26.44 670.98 29.25 670.59 32.06 670.19 C37.63 669.24 42.98 667.67 48.39 666.06 C50.93 665.33 53.41 664.7 56 664.19 C74.08 660.33 92.04 653.15 108.62 645.12 C111.18 643.91 113.74 642.71 116.29 641.5 C120.07 639.71 123.85 637.92 127.62 636.12 C127.62 635.47 127.62 634.8 127.62 634.12 C128.2 634 128.78 633.88 129.37 633.76 C143.21 629.87 156.39 617.79 167.81 609.43 C169.39 608.3 171 607.21 172.62 606.12 C172.62 605.47 172.62 604.8 172.62 604.12 C174.63 603.12 176.62 602.12 178.62 601.12 C178.62 600.47 178.62 599.8 178.62 599.12 C179.18 598.88 179.74 598.63 180.31 598.37 C183.04 596.9 185.28 595.14 187.69 593.19 C188.54 592.5 189.4 591.81 190.29 591.1 C193.09 588.75 193.09 588.75 195.62 586.12 C195.62 585.47 195.62 584.8 195.62 584.12 C196.28 584.12 196.95 584.12 197.62 584.12 C199.29 582.79 199.29 582.79 200.62 581.12 C200.62 580.47 200.62 579.8 200.62 579.12 C201.28 579.12 201.95 579.12 202.62 579.12 C204.29 577.79 204.29 577.79 205.62 576.12 C205.62 575.47 205.62 574.8 205.62 574.12 C206.28 574.12 206.95 574.12 207.62 574.12 C209.19 572.43 210.68 570.67 212.12 568.88 C212.92 567.9 213.71 566.93 214.53 565.92 C216.21 563.68 217.51 561.68 218.62 559.12 C219.28 559.12 219.95 559.12 220.62 559.12 C222.53 556.83 224.31 554.53 226.06 552.12 C226.59 551.41 227.13 550.69 227.67 549.95 C233.17 542.47 238.46 534.84 243.62 527.12 C244.63 525.63 244.63 525.63 245.66 524.1 C249.31 518.52 252.37 512.8 255.27 506.79 C256.39 504.58 257.56 502.63 259 500.62 C260.99 498.06 260.99 498.06 260.62 494.12 C261.28 494.12 261.95 494.12 262.62 494.12 C267.73 481.78 267.73 481.78 272.73 469.38 C273.36 467.79 274 466.2 274.65 464.62 C278.72 454.61 281.6 444.55 284.15 434.06 C284.57 432.33 285.02 430.61 285.48 428.88 C287.14 422.54 288.31 416.24 289.2 409.74 C289.62 407.13 289.62 407.13 290.62 405.12 C290.83 403 290.99 400.88 291.12 398.75 C291.52 392.55 291.52 392.55 292.12 390.16 C292.97 386.71 293.02 383.17 293.19 379.62 C293.25 378.33 293.25 378.33 293.31 377.01 C295.29 346.86 295.29 346.86 291.62 317.12 C291.36 313.96 291.18 310.79 291 307.61 C290.65 304.32 289.98 301.37 289.14 298.18 C288.29 294.78 287.8 291.33 287.25 287.88 C286.2 281.58 284.69 275.7 282.53 269.68 C281.76 267.52 281.15 265.42 280.62 263.19 C278.67 254.97 276.19 246.93 272.61 239.27 C271.6 237.06 270.7 234.83 269.81 232.56 C265.67 222.13 261.36 211.79 255.62 202.12 C254.91 200.87 254.19 199.62 253.48 198.37 C248.73 190.09 243.71 182.1 238.2 174.3 C236.11 171.33 234.1 168.46 232.62 165.12 C231.97 165.12 231.3 165.12 230.62 165.12 C230.38 164.58 230.13 164.04 229.88 163.48 C228.35 160.6 226.53 158.03 224.62 155.38 C223.92 154.39 223.22 153.41 222.5 152.39 C221.88 151.64 221.26 150.9 220.62 150.12 C219.97 150.12 219.3 150.12 218.62 150.12 C218.39 149.58 218.15 149.04 217.91 148.48 C216.28 145.49 214.27 143.01 212.12 140.38 C211.33 139.39 210.54 138.41 209.72 137.39 C208.68 136.27 208.68 136.27 207.62 135.12 C206.97 135.12 206.3 135.12 205.62 135.12 C205.62 134.47 205.62 133.81 205.62 133.12 C204.29 131.46 204.29 131.46 202.62 130.12 C201.97 130.12 201.3 130.12 200.62 130.12 C200.62 129.47 200.62 128.81 200.62 128.12 C199.29 126.46 199.29 126.46 197.62 125.12 C196.97 125.12 196.3 125.12 195.62 125.12 C195.62 124.47 195.62 123.81 195.62 123.12 C194.08 121.52 194.08 121.52 192.06 119.88 C191.34 119.26 190.61 118.65 189.86 118.01 C188.76 117.08 188.76 117.08 187.62 116.12 C186.96 115.53 186.29 114.94 185.61 114.33 C184.69 113.52 184.69 113.52 183.75 112.69 C182.92 111.95 182.92 111.95 182.07 111.19 C180.66 109.93 180.66 109.93 178.62 110.12 C178.62 109.47 178.62 108.81 178.62 108.12 C175.99 105.73 175.99 105.73 172.62 105.12 C172.62 104.47 172.62 103.81 172.62 103.12 C171.03 101.69 171.03 101.69 168.93 100.26 C168.15 99.7 167.37 99.15 166.57 98.57 C165.74 97.99 164.91 97.41 164.06 96.81 C162.86 95.96 162.86 95.96 161.64 95.09 C160.05 93.96 158.47 92.84 156.88 91.72 C154.82 90.26 152.77 88.79 150.73 87.32 C148.13 85.48 145.52 83.87 142.73 82.34 C141.11 81.41 139.53 80.42 137.96 79.41 C129.26 73.84 120.22 69.47 110.84 65.16 C108.65 64.14 106.49 63.07 104.34 61.98 C96.49 58.02 88.17 55.21 79.88 52.29 C77.37 51.39 74.87 50.46 72.38 49.5 C65.51 46.98 58.88 45.05 51.62 44.12 C51.3 43.8 50.96 43.47 50.62 43.12 C48.82 42.75 47.01 42.43 45.19 42.12 C39.84 41.23 39.84 41.23 37.62 40.12 C36.13 39.92 34.63 39.76 33.12 39.62 C28.85 39.24 28.85 39.24 26.62 38.12 C25.3 37.92 23.97 37.76 22.63 37.62 C21.85 37.54 21.06 37.46 20.25 37.38 C19.42 37.29 18.6 37.21 17.75 37.12 C16.13 36.96 14.5 36.79 12.88 36.62 C12.16 36.55 11.44 36.48 10.7 36.41 C8.62 36.12 8.62 36.12 6.86 35.62 C4.13 35.02 1.61 34.98 -1.19 34.96 C-2.36 34.95 -3.53 34.94 -4.74 34.93 C-6.01 34.93 -7.28 34.93 -8.59 34.92 C-9.24 34.92 -9.9 34.92 -10.57 34.91 C-14.05 34.9 -17.53 34.89 -21.01 34.88 C-23.85 34.88 -26.68 34.87 -29.52 34.84 C-55.62 33.35 -55.62 33.35 -80.38 39.12 Z " fill="#000000" transform="translate(666.375,72.875)"/>
</svg>
